<?xml version="1.0" encoding="UTF-8"?>
<svg id="Layer_1" xmlns="http://www.w3.org/2000/svg" version="1.1" viewBox="0 0 576 576">
  <!-- Generator: Adobe Illustrator 29.0.1, SVG Export Plug-In . SVG Version: 2.1.0 Build 192)  -->
  <defs>
    <style>
      .st0 {
        fill: #553415;
      }

      .st1 {
        fill: #ba8855;
        stroke: #553415;
        stroke-miterlimit: 10;
        stroke-width: 12px;
      }
    </style>
  </defs>
  <path class="st1" d="M474.392,303.75c0,112.66602-91.33401,204-204,204s-204-91.33398-204-204,91.334-204,204-204c12.93799,0,33.5,1.5,10.5,14.5-9,6-11.422,22.105-4,32,9,12,19.69601,17.95999,32,14,13.005-4.186-40.48801,24.90201,10,81,18,20,50,35,78,25,5.82599-2.08099,1.53699,19,32,19,9,0,18-6,23-15,11.07401-19.93401,22.5,25.85999,22.5,33.5Z"/>
  <ellipse class="st0" cx="448.892" cy="87.75" rx="20" ry="19.5"/>
  <ellipse class="st0" cx="401.13199" cy="167.589" rx="16.76099" ry="16.342"/>
  <ellipse class="st0" cx="497.98901" cy="202.576" rx="11.61801" ry="11.328"/>
  <ellipse class="st0" cx="212.892" cy="195.75" rx="20" ry="19.5"/>
  <ellipse class="st0" cx="245.644" cy="282.42801" rx="16.761" ry="16.34201"/>
  <ellipse class="st0" cx="410.64401" cy="340.42801" rx="16.76099" ry="16.34201"/>
  <ellipse class="st0" cx="313.64401" cy="341.42801" rx="11.61801" ry="11.328"/>
  <ellipse class="st0" cx="307.892" cy="427.75" rx="20" ry="19.5"/>
  <ellipse class="st0" cx="187.892" cy="384.75" rx="20" ry="19.5"/>
  <ellipse class="st0" cx="141.644" cy="293.42801" rx="11.618" ry="11.328"/>
</svg>