<?xml version="1.0" encoding="UTF-8"?>
<svg id="Layer_1" xmlns="http://www.w3.org/2000/svg" version="1.1" viewBox="0 0 576 576">
  <!-- Generator: Adobe Illustrator 29.0.1, SVG Export Plug-In . SVG Version: 2.1.0 Build 192)  -->
  <defs>
    <style>
      .st0 {
        fill: none;
        stroke: #231f20;
        stroke-miterlimit: 10;
        stroke-width: 15px;
      }
    </style>
  </defs>
  <path class="st0" d="M474.392,303.75c0,112.666-91.334,204-204,204s-204-91.334-204-204,91.334-204,204-204c12.938,0,33.5,1.5,10.5,14.5-9,6-11.422,22.105-4,32,9,12,19.696,17.96,32,14,13.005-4.186-40.488,24.902,10,81,18,20,50,35,78,25,5.826-2.081,1.537,19,32,19,9,0,18-6,23-15,11.074-19.934,22.5,25.86,22.5,33.5Z"/>
  <ellipse cx="448.892" cy="87.75" rx="20" ry="19.5"/>
  <ellipse cx="401.132" cy="167.589" rx="16.761" ry="16.342"/>
  <ellipse cx="497.989" cy="202.576" rx="11.618" ry="11.328"/>
  <ellipse cx="212.892" cy="195.75" rx="20" ry="19.5"/>
  <ellipse cx="245.644" cy="282.428" rx="16.761" ry="16.342"/>
  <ellipse cx="410.644" cy="340.428" rx="16.761" ry="16.342"/>
  <ellipse cx="313.644" cy="341.428" rx="11.618" ry="11.328"/>
  <ellipse cx="307.892" cy="427.75" rx="20" ry="19.5"/>
  <ellipse cx="187.892" cy="384.75" rx="20" ry="19.5"/>
  <ellipse cx="141.644" cy="293.428" rx="11.618" ry="11.328"/>
</svg>