<?xml version="1.0" encoding="UTF-8"?>
<svg id="Layer_1" xmlns="http://www.w3.org/2000/svg" version="1.1" viewBox="0 0 576 576">
  <!-- Generator: Adobe Illustrator 29.0.1, SVG Export Plug-In . SVG Version: 2.1.0 Build 192)  -->
  <defs>
    <style>
      .st0 {
        stroke-width: 2px;
      }

      .st0, .st1, .st2, .st3, .st4, .st5 {
        stroke: #352b13;
        stroke-miterlimit: 10;
      }

      .st0, .st3, .st4 {
        fill: #68441a;
      }

      .st1, .st2 {
        fill: none;
      }

      .st1, .st4, .st5 {
        stroke-width: 12px;
      }

      .st2, .st3 {
        stroke-width: 8px;
      }

      .st5 {
        fill: tan;
      }
    </style>
  </defs>
  <path class="st5" d="M330.134,391.97364c-6.20401,66.505-6.50201,153.46899-71.211,143.76501-47.311-7.09399-114.04599-36.45599-138.194-83.93399-30.58-60.12302,40.17599-96.086,80.01001-128.51498,14.61099-11.89401,16.44901-81.83899,59.246-88.79199,35.03699-5.692,102.58401,33.77399,118.84702,61.29102,2.099,3.55099,3.29199,7.561,3.73801,11.66101,6.134,56.33801-50.392,62.60901-52.436,84.522l-.00003.00192Z"/>
  <circle class="st4" cx="264.89899" cy="358.72767" r="32.87399"/>
  <line class="st1" x1="178.687" y1="411.36866" x2="268.98099" y2="460.21265"/>
  <polygon class="st3" points="425.108 105.31365 325.06299 285.00666 301.75101 272.37964 400.21399 91.16265 425.108 105.31365"/>
  <g>
    <path class="st3" d="M432.849,104.15665"/>
    <path class="st3" d="M397.689,88.82865"/>
    <path class="st3" d="M399.69601,90.58665l26.383,14.679,10.68399-9.713,18.45499-32.053c1.63501-10.013-18.168-24.262-33.02499-17.484l-17.48401,27.197-4.37299,16.78.92401,1.847"/>
  </g>
  <line class="st2" x1="405.55801" y1="71.80266" x2="395.65601" y2="66.64765"/>
  <path class="st0" d="M383.38599,10.21665"/>
  <line class="st2" x1="307.65201" y1="259.27866" x2="331.51501" y2="272.43564"/>
  <line class="st2" x1="316.16299" y1="247.73365" x2="339.61401" y2="261.02265"/>
  <line class="st2" x1="326.50101" y1="226.52566" x2="351.20001" y2="240.52265"/>
  <line class="st2" x1="340.086" y1="205.17765" x2="362.14401" y2="217.67765"/>
  <line class="st2" x1="390.97699" y1="111.31666" x2="415.065" y2="124.22165"/>
  <line class="st2" x1="376.00101" y1="136.88865" x2="399.41299" y2="150.95765"/>
  <line class="st2" x1="362.12701" y1="158.90465" x2="387.935" y2="173.52865"/>
  <line class="st2" x1="351.64401" y1="183.07465" x2="374.98801" y2="196.30366"/>
  <line class="st2" x1="411.92599" y1="60.85866" x2="402.02499" y2="55.70265"/>
  <line class="st2" x1="418.392" y1="50.69765" x2="408.491" y2="45.54165"/>
  <line class="st2" x1="448.875" y1="95.03565" x2="438.97299" y2="89.88065"/>
  <line class="st2" x1="456.26501" y1="84.87565" x2="446.36301" y2="79.71966"/>
  <line class="st2" x1="462.73099" y1="74.71465" x2="452.82901" y2="69.55865"/>
</svg>