<?xml version="1.0" encoding="UTF-8"?>
<svg id="Layer_1" xmlns="http://www.w3.org/2000/svg" version="1.1" viewBox="0 0 576 576">
  <!-- Generator: Adobe Illustrator 29.0.1, SVG Export Plug-In . SVG Version: 2.1.0 Build 192)  -->
  <defs>
    <style>
      .st0, .st1 {
        fill: none;
        stroke: #231f20;
        stroke-miterlimit: 10;
      }

      .st1 {
        stroke-width: 15px;
      }
    </style>
  </defs>
  <path class="st1" d="M334.5,400.419c-6.717,71.997-7.039,166.143-77.092,155.638-51.218-7.68-123.464-39.467-149.607-90.866-33.105-65.088,43.494-104.021,86.617-139.128,15.817-12.877,17.807-88.598,64.139-96.124,37.931-6.162,111.056,36.563,128.661,66.353,2.272,3.844,3.564,8.185,4.047,12.624,6.641,60.99-54.553,67.78-56.766,91.502Z"/>
  <circle class="st1" cx="263.877" cy="364.427" r="35.589"/>
  <line class="st1" x1="152.545" y1="457.416" x2="250.296" y2="510.293"/>
  <g>
    <polygon class="st1" points="437.317 90.086 329.01 284.618 303.773 270.948 410.367 74.767 437.317 90.086"/>
    <g>
      <path class="st1" d="M445.696,88.834"/>
      <path class="st1" d="M407.634,72.24"/>
      <path class="st1" d="M409.806,74.143l28.562,15.892,11.567-10.515,19.979-34.7c1.771-10.84-19.669-26.265-35.752-18.927l-18.927,29.443-4.735,18.166,1,2"/>
    </g>
    <line class="st0" x1="416.152" y1="53.808" x2="405.432" y2="48.226"/>
    <path class="st1" d="M392.149-12.864"/>
    <line class="st1" x1="310.161" y1="256.766" x2="335.995" y2="271.009"/>
    <line class="st1" x1="319.375" y1="244.268" x2="344.763" y2="258.654"/>
    <line class="st1" x1="330.566" y1="221.308" x2="357.306" y2="236.461"/>
    <line class="st1" x1="345.273" y1="198.197" x2="369.153" y2="211.729"/>
    <line class="st1" x1="400.367" y1="96.585" x2="426.444" y2="110.556"/>
    <line class="st1" x1="384.154" y1="124.269" x2="409.5" y2="139.5"/>
    <line class="st1" x1="369.135" y1="148.102" x2="397.074" y2="163.935"/>
    <line class="st1" x1="357.786" y1="174.269" x2="383.058" y2="188.59"/>
    <line class="st0" x1="423.046" y1="41.96" x2="412.327" y2="36.378"/>
    <line class="st0" x1="430.046" y1="30.96" x2="419.327" y2="25.378"/>
    <line class="st0" x1="463.046" y1="78.96" x2="452.327" y2="73.378"/>
    <line class="st0" x1="471.046" y1="67.96" x2="460.327" y2="62.378"/>
    <line class="st0" x1="478.046" y1="56.96" x2="467.327" y2="51.378"/>
  </g>
</svg>