<?xml version="1.0" encoding="UTF-8"?>
<svg id="Layer_1" xmlns="http://www.w3.org/2000/svg" version="1.1" viewBox="0 0 576 576">
  <!-- Generator: Adobe Illustrator 29.0.1, SVG Export Plug-In . SVG Version: 2.1.0 Build 192)  -->
  <defs>
    <style>
      .st0, .st1, .st2, .st3 {
        stroke: #352b13;
        stroke-miterlimit: 10;
      }

      .st0, .st1, .st3 {
        stroke-width: 2px;
      }

      .st0, .st2 {
        fill: #68441a;
      }

      .st1 {
        fill: tan;
      }

      .st3 {
        fill: none;
      }
    </style>
  </defs>
  <path class="st1" d="M330.134,406.623c-6.204,66.505-6.502,153.469-71.211,143.765-47.311-7.094-114.046-36.456-138.194-83.934-30.58-60.123,40.176-96.086,80.01-128.515,14.611-11.894,16.449-81.839,59.246-88.792,35.037-5.692,102.584,33.774,118.847,61.291,2.099,3.551,3.292,7.561,3.738,11.661,6.134,56.338-50.392,62.609-52.436,84.522Z"/>
  <circle class="st0" cx="264.899" cy="373.377" r="32.874"/>
  <line class="st3" x1="178.687" y1="426.018" x2="268.981" y2="474.862"/>
  <polygon class="st0" points="425.108 119.963 325.063 299.656 301.751 287.029 400.214 105.812 425.108 119.963"/>
  <g>
    <path class="st0" d="M432.849,118.806"/>
    <path class="st0" d="M397.689,103.478"/>
    <path class="st0" d="M399.696,105.236l26.383,14.679,10.684-9.713,18.455-32.053c1.635-10.013-18.168-24.262-33.025-17.484l-17.484,27.197-4.373,16.78.924,1.847"/>
  </g>
  <line class="st2" x1="405.558" y1="86.452" x2="395.656" y2="81.297"/>
  <path class="st0" d="M383.386,24.866"/>
  <line class="st0" x1="307.652" y1="273.928" x2="331.515" y2="287.085"/>
  <line class="st0" x1="316.163" y1="262.383" x2="339.614" y2="275.672"/>
  <line class="st0" x1="326.501" y1="241.175" x2="351.2" y2="255.172"/>
  <line class="st0" x1="340.086" y1="219.827" x2="362.144" y2="232.327"/>
  <line class="st0" x1="390.977" y1="125.966" x2="415.065" y2="138.871"/>
  <line class="st0" x1="376.001" y1="151.538" x2="399.413" y2="165.607"/>
  <line class="st0" x1="362.127" y1="173.554" x2="387.935" y2="188.178"/>
  <line class="st0" x1="351.644" y1="197.724" x2="374.988" y2="210.953"/>
  <line class="st2" x1="411.926" y1="75.508" x2="402.025" y2="70.352"/>
  <line class="st2" x1="418.392" y1="65.347" x2="408.491" y2="60.191"/>
  <line class="st2" x1="448.875" y1="109.685" x2="438.973" y2="104.53"/>
  <line class="st2" x1="456.265" y1="99.525" x2="446.363" y2="94.369"/>
  <line class="st2" x1="462.731" y1="89.364" x2="452.829" y2="84.208"/>
</svg>