<?xml version="1.0" encoding="UTF-8"?>
<svg id="Layer_1" xmlns="http://www.w3.org/2000/svg" version="1.1" viewBox="0 0 576 576">
  <!-- Generator: Adobe Illustrator 29.0.1, SVG Export Plug-In . SVG Version: 2.1.0 Build 192)  -->
  <defs>
    <style>
      .st0, .st1 {
        fill: none;
        stroke: #231f20;
        stroke-miterlimit: 10;
      }

      .st1 {
        stroke-width: 15px;
      }
    </style>
  </defs>
  <path class="st1" d="M330.38809,392.33573c-6.24192,66.90473-6.54114,154.39187-71.63937,144.62988-47.5954-7.13679-114.7315-36.67552-139.02544-84.43913-30.76351-60.48437,40.41772-96.66369,80.49067-129.28763,14.69828-11.96624,16.54753-82.33154,59.60252-89.32524,35.24818-5.72617,103.20112,33.97692,119.56094,61.65991,2.11131,3.57211,3.31192,7.60608,3.76076,11.73111,6.17128,56.67623-50.69453,62.98599-52.75099,85.03014l.00091.00096Z"/>
  <circle class="st1" cx="264.7602" cy="358.88941" r="33.07182"/>
  <line class="st1" x1="161.30259" y1="445.30137" x2="252.13976" y2="494.43845"/>
  <g>
    <polygon class="st1" points="425.93293 103.95227 325.2864 284.72523 301.83439 272.02208 400.8891 89.71677 425.93293 103.95227"/>
    <g>
      <path class="st1" d="M433.71932,102.78883"/>
      <path class="st1" d="M398.3494,87.3685"/>
      <path class="st1" d="M400.36777,89.1369l26.54185,14.76797,10.74886-9.77128,18.56591-32.2457c1.64574-10.0733-18.27784-24.4073-33.22331-17.58831l-17.58831,27.36053-4.40008,16.88114.92927,1.85854"/>
    </g>
    <line class="st0" x1="406.26493" y1="70.24018" x2="396.30315" y2="65.05299"/>
    <path class="st1" d="M383.95962,8.28383"/>
    <line class="st1" x1="307.77057" y1="258.84315" x2="331.77735" y2="272.07877"/>
    <line class="st1" x1="316.33287" y1="247.22914" x2="339.9252" y2="260.59762"/>
    <line class="st1" x1="326.73235" y1="225.89307" x2="351.58104" y2="239.97431"/>
    <line class="st1" x1="340.39914" y1="204.4167" x2="362.59013" y2="216.99159"/>
    <line class="st1" x1="391.59639" y1="109.99161" x2="415.82898" y2="122.97445"/>
    <line class="st1" x1="376.5301" y1="135.71754" x2="400.08341" y2="149.87127"/>
    <line class="st1" x1="362.5734" y1="157.86486" x2="388.5363" y2="172.578"/>
    <line class="st1" x1="352.02711" y1="182.18109" x2="375.51164" y2="195.48918"/>
    <line class="st0" x1="412.67131" y1="59.23018" x2="402.71046" y2="54.04299"/>
    <line class="st0" x1="419.17621" y1="49.0082" x2="409.21536" y2="43.82101"/>
    <line class="st0" x1="449.84215" y1="93.6132" x2="439.8813" y2="88.42601"/>
    <line class="st0" x1="457.27632" y1="83.39122" x2="447.31547" y2="78.20403"/>
    <line class="st0" x1="463.78121" y1="73.16924" x2="453.82036" y2="67.98205"/>
  </g>
</svg>