<?xml version="1.0" encoding="UTF-8"?>
<svg id="Layer_1" xmlns="http://www.w3.org/2000/svg" version="1.1" viewBox="0 0 576 576">
  <!-- Generator: Adobe Illustrator 29.0.1, SVG Export Plug-In . SVG Version: 2.1.0 Build 192)  -->
  <defs>
    <style>
      .st0 {
        fill: #fff;
      }

      .st0, .st1 {
        stroke: #231f20;
        stroke-miterlimit: 10;
        stroke-width: 15px;
      }

      .st1 {
        fill: none;
      }
    </style>
  </defs>
  <path class="st0" d="M317.278,107.618"/>
  <path class="st1" d="M103.408,455.677s36.319-117.703,117.078-167.201"/>
  <path class="st1" d="M125.399,261.122s9.446-11.434,26.8-29.692c31.301-32.931,88.331-88.061,162.072-138.339"/>
  <path class="st1" d="M202.251,137.378s-42.789,31.795-50.051,94.052"/>
  <path class="st1" d="M294.851,176.666c39.077-23.446,90.547-36.399,90.547-36.399"/>
  <path class="st1" d="M251.748,317.133s115.009-85.852,180.752-95.633"/>
  <path class="st1" d="M421.082,322.343s57.313,46.892,46.892,93.785"/>
  <path class="st1" d="M139.614,493.553c-.013.041-.052.066-.091.047-1.317-.662-22.009-11.358-37.555-37.27-20.553-34.256-32.112-95.107,21.976-194.527.009-.017.014-.03.007-.049-.488-1.388-24.077-69.759,40.387-141.958,65.091-72.902,132.784-41.718,148.466-26.078.017.017.036.025.06.018,1.803-.472,78.036-20.026,72.914,46.87-.002.02,0,.033.013.047,1.128,1.176,64.798,67.672,46.942,80.696-.034.025-.045.067-.015.096,2.667,2.643,110.782,111.34,26.159,280.989-.034.069-.14.044-.136-.032.499-8.555,7.2-171.928-208.425-184.616-.006,0-.005-.001-.011,0-.369.066-60.055,10.929-110.692,175.767Z"/>
</svg>