<?xml version="1.0" encoding="UTF-8"?>
<svg id="Layer_1" xmlns="http://www.w3.org/2000/svg" version="1.1" viewBox="0 0 576 576">
  <!-- Generator: Adobe Illustrator 29.0.1, SVG Export Plug-In . SVG Version: 2.1.0 Build 192)  -->
  <defs>
    <style>
      .st0, .st1 {
        stroke-width: 12px;
      }

      .st0, .st1, .st2 {
        stroke: #fff;
        stroke-miterlimit: 10;
      }

      .st0, .st2 {
        fill: none;
      }

      .st1 {
        fill: #e1d38e;
      }

      .st2 {
        stroke-width: 2px;
      }
    </style>
  </defs>
  <path class="st1" d="M137.00985,497.15924c-.01323.0417-.05291.06717-.0926.04782-1.34011-.6736-22.39518-11.55729-38.21396-37.92395-20.91363-34.85708-32.67545-96.77579,22.3616-197.94024.00916-.0173.01425-.03053.00713-.04987-.49656-1.41236-24.49947-70.98303,41.09565-144.44886,66.23312-74.18117,135.1139-42.45001,151.07108-26.53558.0173.0173.03664.02544.06105.01831,1.83465-.48028,79.40527-20.37739,74.19339,47.69241-.00205.02036,0,.03358.01323.04782,1.14778,1.19663,65.93498,68.8594,47.76568,82.11193-.03459.02543-.0458.06818-.01528.09768,2.71379,2.68938,112.72582,113.29364,26.618,285.91937-.03459.07021-.14247.04478-.13837-.03257.50775-8.7051,7.32635-174.94474-212.08213-187.85536-.0061,0-.00509-.00102-.01119,0-.37548.06717-61.10875,11.12075-112.63426,178.85109h.00099Z"/>
  <path class="st2" d="M317.79124,105.46997"/>
  <path class="st0" d="M100.16856,459.63619s36.95626-119.76828,119.1323-170.13478"/>
  <path class="st0" d="M122.54543,261.66744s9.61174-11.63463,27.27025-30.21299c31.85022-33.50882,89.88089-89.60615,164.91578-140.76637"/>
  <path class="st0" d="M200.74592,135.75216s-43.5398,32.35289-50.92921,95.70228"/>
  <path class="st0" d="M294.97073,175.72952c39.76266-23.85739,92.13578-37.03768,92.13578-37.03768"/>
  <path class="st0" d="M251.11141,318.66122s117.02702-87.35839,183.92356-97.31102"/>
  <path class="st0" d="M423.41662,323.96263s58.31863,47.71479,47.71479,95.4306"/>
</svg>