<?xml version="1.0" encoding="UTF-8"?>
<svg id="Layer_1" xmlns="http://www.w3.org/2000/svg" version="1.1" viewBox="0 0 576 576">
  <!-- Generator: Adobe Illustrator 29.0.1, SVG Export Plug-In . SVG Version: 2.1.0 Build 192)  -->
  <defs>
    <style>
      .st0 {
        fill: none;
        stroke: #000;
        stroke-miterlimit: 10;
        stroke-width: 12px;
      }
    </style>
  </defs>
  <path class="st0" d="M103.04942,126.80206c2.66514.4636,0,28.38921,2.36577,44.16099,0,0,6.08822-.39924,14.73291.10927,0,0,4.06809-9.66171,17.28938-17.79789,0,0,4.5766-17.28938,30.00216-13.7298,0,0,6.61065-17.79789,25.42556-22.883,0,0-2.03404-24.40854,14.23831-34.57876s57.46176-1.01702,57.46176-1.01702l5.59362-7.11916s13.22129-.50851,14.23831,50.85112,6.61604,159.15138,6.10213,182.55551-31.01918,192.21722-38.64685,210.01511H117.60554s67.12347-142.38313,71.19156-160.68953c4.06809-18.3064-7.41357-106.78552-10.17022-110.34692s-98.75865,37.00995-100.1767,36.10429-3.7168-129.69855-1.01702-135.26397,22.95113-20.83384,25.61626-20.37024Z"/>
  <path class="st0" d="M353.3176,58.57784c3.8957-3.8957,18.82923,2.59714,25.97135,9.08997,7.14212,6.49284,3.8957,11.03782,11.03782,14.93353s32.46419,14.28424,49.99485,27.26992c17.53066,12.98568,51.52892,39.13576,53.89055,46.74844,9.21301,29.6981,5.38793,382.07923.46606,361.07638l-131.62139.57468s25.97135-414.89234-7.14212-431.77371c0,0-6.49284-24.0235-2.59714-27.9192Z"/>
  <path class="st0" d="M388.42357,517.551s3.89538-136.33814,9.3489-144.12889c5.45353-7.79075,3.89538-27.26763,81.02381-144.12889,0,0,7.79075-21.8141-16.36058-34.2793,0,0-18.6978-8.56983-49.08173-3.1163,0,0,65.44231-8.56983,57.65156-35.05838-7.79075-26.48855-30.6839-46.96798-30.6839-46.96798"/>
  <path class="st0" d="M178.62688,246.33197s-6.00711-32.62025,10.35347-72.35308c0,0,20.25595-12.4652,53.75618-14.80243,0,0-44.42834-10.23847-49.87133-42.51484"/>
  <path class="st0" d="M453.0868,516.77193c1.28012.58761-12.80857-26.33079-16.36058-49.8608-3.04137-20.14733,5.04501-168.38126,42.07004-238.39696"/>
  <path class="st0" d="M188.98035,173.97889s.77908-28.82578,9.3489-42.07005"/>
  <ellipse class="st0" cx="212.4779" cy="289.32266" rx="6.42298" ry="10.70496"/>
  <ellipse class="st0" cx="202.24871" cy="402.55738" rx="6.42298" ry="10.70496"/>
  <ellipse class="st0" cx="426.33927" cy="441.57102" rx="6.42298" ry="10.70496"/>
</svg>