<?xml version="1.0" encoding="UTF-8"?>
<svg id="Layer_1" xmlns="http://www.w3.org/2000/svg" version="1.1" viewBox="0 0 576 576">
  <!-- Generator: Adobe Illustrator 29.0.1, SVG Export Plug-In . SVG Version: 2.1.0 Build 192)  -->
  <defs>
    <style>
      .st0 {
        fill: #df7a48;
        stroke: #c9442a;
        stroke-miterlimit: 10;
        stroke-width: 12px;
      }
    </style>
  </defs>
  <path class="st0" d="M103.04942,126.80206c2.66514.4636,0,28.38921,2.36577,44.161,0,0,6.08822-.39925,14.73291.10927,0,0,4.06809-9.66171,17.28938-17.79788,0,0,4.5766-17.28938,30.00215-13.7298,0,0,6.61066-17.79789,25.42557-22.883,0,0-2.03404-24.40854,14.23831-34.57876s57.46176-1.01702,57.46176-1.01702l5.59363-7.11916s13.22128-.50851,14.23831,50.85112,6.61603,159.15139,6.10214,182.5555-31.0192,192.21722-38.64685,210.01508H117.60554s67.12347-142.38312,71.19155-160.68951-7.41357-106.78552-10.17023-110.34692-98.75865,37.00995-100.1767,36.10428-3.7168-129.69855-1.01702-135.26398,22.95113-20.83384,25.61626-20.37024l.00002.00003Z"/>
  <path class="st0" d="M353.3176,58.57784c3.89569-3.8957,18.82922,2.59714,25.97134,9.08997,7.14212,6.49284,3.89569,11.03782,11.03781,14.93353s32.4642,14.28424,49.99484,27.26992c17.53067,12.98568,51.52893,39.13576,53.89056,46.74844,9.21301,29.6981,5.38794,382.07921.46606,361.0764l-131.6214.57471s25.97134-414.89233-7.14212-431.77371c0,0-6.49283-24.0235-2.59714-27.9192l.00003-.00006Z"/>
  <path class="st0" d="M388.42358,517.55103s3.89539-136.33813,9.34891-144.12891c5.45352-7.79074,3.89539-27.26764,81.0238-144.12889,0,0,7.79074-21.8141-16.36057-34.2793,0,0-18.69781-8.56982-49.08173-3.1163,0,0,65.44232-8.56982,57.65155-35.05838-7.79074-26.48856-30.6839-46.96798-30.6839-46.96798"/>
  <path class="st0" d="M178.62688,246.33197s-6.00711-32.62025,10.35347-72.35309c0,0,20.25595-12.46519,53.75618-14.80243,0,0-44.42834-10.23846-49.87132-42.51484"/>
  <path class="st0" d="M453.08679,516.77191c1.28012.58759-12.80856-26.33078-16.3606-49.86081-3.04138-20.14734,5.04501-168.38126,42.07004-238.39696"/>
  <path class="st0" d="M188.98035,173.9789s.77908-28.82578,9.34891-42.07005"/>
  <ellipse class="st0" cx="212.47791" cy="289.32266" rx="6.42297" ry="10.70496"/>
  <ellipse class="st0" cx="202.2487" cy="402.55737" rx="6.42297" ry="10.70496"/>
  <ellipse class="st0" cx="426.33926" cy="441.57101" rx="6.42297" ry="10.70496"/>
</svg>